<mxfile host="app.diagrams.net" modified="2021-11-30T09:42:34.908Z" agent="5.0 (Windows NT 10.0; Win64; x64) AppleWebKit/537.36 (KHTML, like Gecko) Chrome/96.0.4664.45 Safari/537.36" etag="pYjrq7qHUVgr5oMXcWgA" version="15.8.7" type="github">
  <diagram id="nXLfRWmJUbY5eL2fCBMk" name="Page-1">
    <mxGraphModel dx="868" dy="394" grid="1" gridSize="10" guides="1" tooltips="1" connect="1" arrows="1" fold="1" page="1" pageScale="1" pageWidth="827" pageHeight="1169" math="0" shadow="0">
      <root>
        <mxCell id="0" />
        <mxCell id="1" parent="0" />
        <mxCell id="4eXmbt_bu1sTkrRE2RMM-3" value="" style="edgeStyle=orthogonalEdgeStyle;rounded=0;orthogonalLoop=1;jettySize=auto;html=1;" edge="1" parent="1" source="4eXmbt_bu1sTkrRE2RMM-1" target="4eXmbt_bu1sTkrRE2RMM-2">
          <mxGeometry relative="1" as="geometry" />
        </mxCell>
        <mxCell id="4eXmbt_bu1sTkrRE2RMM-1" value="Power Supply" style="rounded=1;whiteSpace=wrap;html=1;" vertex="1" parent="1">
          <mxGeometry x="320" y="60" width="120" height="60" as="geometry" />
        </mxCell>
        <mxCell id="4eXmbt_bu1sTkrRE2RMM-5" value="" style="edgeStyle=orthogonalEdgeStyle;rounded=0;orthogonalLoop=1;jettySize=auto;html=1;" edge="1" parent="1" source="4eXmbt_bu1sTkrRE2RMM-2" target="4eXmbt_bu1sTkrRE2RMM-4">
          <mxGeometry relative="1" as="geometry" />
        </mxCell>
        <mxCell id="4eXmbt_bu1sTkrRE2RMM-7" value="" style="edgeStyle=orthogonalEdgeStyle;rounded=0;orthogonalLoop=1;jettySize=auto;html=1;" edge="1" parent="1" source="4eXmbt_bu1sTkrRE2RMM-2" target="4eXmbt_bu1sTkrRE2RMM-6">
          <mxGeometry relative="1" as="geometry" />
        </mxCell>
        <mxCell id="4eXmbt_bu1sTkrRE2RMM-2" value="Atmega-16" style="whiteSpace=wrap;html=1;rounded=1;" vertex="1" parent="1">
          <mxGeometry x="320" y="200" width="120" height="60" as="geometry" />
        </mxCell>
        <mxCell id="4eXmbt_bu1sTkrRE2RMM-4" value="LCD&amp;nbsp; Display / output" style="whiteSpace=wrap;html=1;rounded=1;" vertex="1" parent="1">
          <mxGeometry x="520" y="200" width="120" height="60" as="geometry" />
        </mxCell>
        <mxCell id="4eXmbt_bu1sTkrRE2RMM-6" value="Keypad / input" style="whiteSpace=wrap;html=1;rounded=1;" vertex="1" parent="1">
          <mxGeometry x="120" y="200" width="120" height="60" as="geometry" />
        </mxCell>
        <mxCell id="4eXmbt_bu1sTkrRE2RMM-8" value="" style="endArrow=classic;html=1;rounded=0;exitX=0;exitY=0.5;exitDx=0;exitDy=0;" edge="1" parent="1" source="4eXmbt_bu1sTkrRE2RMM-1">
          <mxGeometry width="50" height="50" relative="1" as="geometry">
            <mxPoint x="390" y="230" as="sourcePoint" />
            <mxPoint x="200" y="190" as="targetPoint" />
            <Array as="points">
              <mxPoint x="200" y="90" />
            </Array>
          </mxGeometry>
        </mxCell>
        <mxCell id="4eXmbt_bu1sTkrRE2RMM-9" value="" style="endArrow=classic;html=1;rounded=0;exitX=1;exitY=0.333;exitDx=0;exitDy=0;exitPerimeter=0;" edge="1" parent="1" source="4eXmbt_bu1sTkrRE2RMM-1">
          <mxGeometry width="50" height="50" relative="1" as="geometry">
            <mxPoint x="450" y="80" as="sourcePoint" />
            <mxPoint x="560" y="190" as="targetPoint" />
            <Array as="points">
              <mxPoint x="480" y="80" />
              <mxPoint x="560" y="80" />
            </Array>
          </mxGeometry>
        </mxCell>
      </root>
    </mxGraphModel>
  </diagram>
</mxfile>
